<svg width="3038" height="737" viewBox="0 0 3038 737" fill="none" xmlns="http://www.w3.org/2000/svg">
<g clip-path="url(#clip0_163_56)">
<rect width="3038" height="737" fill="white"/>
<path d="M848.2 507H721.8C716.733 507 713 505.933 710.6 503.8C708.467 501.4 707.4 497.667 707.4 492.6V445.8C707.4 440.733 708.467 437.133 710.6 435C713 432.6 716.733 431.4 721.8 431.4H829.4C832.867 431.4 835.4 430.333 837 428.2C838.867 425.8 839.8 423 839.8 419.8C839.8 415.267 838.867 411.933 837 409.8C835.4 407.667 832.867 406.467 829.4 406.2L769.4 397.8C750.733 395.133 735.667 389 724.2 379.4C713 369.8 707.4 353.8 707.4 331.4V289.4C707.4 266.733 714.733 249.4 729.4 237.4C744.067 225.133 764.333 219 790.2 219H902.2C907.267 219 910.867 220.2 913 222.6C915.4 224.733 916.6 228.333 916.6 233.4V281C916.6 286.067 915.4 289.8 913 292.2C910.867 294.333 907.267 295.4 902.2 295.4H809C805.533 295.4 802.867 296.6 801 299C799.133 301.133 798.2 303.933 798.2 307.4C798.2 310.867 799.133 313.8 801 316.2C802.867 318.6 805.533 319.933 809 320.2L868.6 328.2C887.267 330.867 902.333 337 913.8 346.6C925.267 356.2 931 372.2 931 394.6V436.6C931 459.267 923.533 476.733 908.6 489C893.933 501 873.8 507 848.2 507ZM880.6 255H791.8C779.533 255 769.667 258.467 762.2 265.4C754.733 272.067 751 280.733 751 291.4V324.2C751 335.133 753.133 342.733 757.4 347C761.933 351 767.667 353.667 774.6 355L859 372.2C866.467 373.8 872.333 377 876.6 381.8C881.133 386.333 883.4 394.867 883.4 407.4V430.6C883.4 441.267 879.667 450.067 872.2 457C865 463.667 855.267 467 843 467H743.4V471H843C856.6 471 867.4 467.267 875.4 459.8C883.4 452.067 887.4 442.333 887.4 430.6V407.4C887.4 393.533 884.733 383.933 879.4 378.6C874.333 373.267 867.8 369.8 859.8 368.2L775.4 351C769.267 349.933 764.333 347.533 760.6 343.8C756.867 340.067 755 333.533 755 324.2V291.4C755 282.067 758.333 274.333 765 268.2C771.667 262.067 780.6 259 791.8 259H880.6V255ZM1219.96 431.4C1219.96 443.667 1218.09 454.867 1214.36 465C1210.89 474.867 1204.49 483.4 1195.16 490.6C1186.09 497.533 1173.56 503 1157.56 507C1141.56 511 1121.16 513 1096.36 513C1071.56 513 1051.16 511 1035.16 507C1019.16 503 1006.49 497.533 997.156 490.6C988.09 483.4 981.69 474.867 977.956 465C974.49 454.867 972.756 443.667 972.756 431.4V233.4C972.756 228.333 973.823 224.733 975.956 222.6C978.356 220.2 982.09 219 987.156 219H1049.96C1055.02 219 1058.62 220.2 1060.76 222.6C1063.16 224.733 1064.36 228.333 1064.36 233.4V415.8C1064.36 421.133 1066.36 425.667 1070.36 429.4C1074.36 432.867 1083.29 434.6 1097.16 434.6C1111.29 434.6 1120.36 432.867 1124.36 429.4C1128.36 425.667 1130.36 421.133 1130.36 415.8V233.4C1130.36 228.333 1131.42 224.733 1133.56 222.6C1135.96 220.2 1139.69 219 1144.76 219H1205.56C1210.62 219 1214.22 220.2 1216.36 222.6C1218.76 224.733 1219.96 228.333 1219.96 233.4V431.4ZM1016.76 255V421.8C1016.76 437.8 1022.22 450.867 1033.16 461C1044.36 470.867 1065.56 475.8 1096.76 475.8C1127.96 475.8 1149.16 470.867 1160.36 461C1171.56 450.867 1177.16 437.8 1177.16 421.8V255H1173.16V421.8C1173.16 436.733 1167.82 448.867 1157.16 458.2C1146.49 467.267 1126.36 471.8 1096.76 471.8C1067.16 471.8 1047.02 467.267 1036.36 458.2C1025.96 448.867 1020.76 436.733 1020.76 421.8V255H1016.76ZM1349.59 507H1287.59C1282.53 507 1278.79 505.933 1276.39 503.8C1274.26 501.4 1273.19 497.667 1273.19 492.6V233.4C1273.19 228.333 1274.26 224.733 1276.39 222.6C1278.79 220.2 1282.53 219 1287.59 219H1409.99C1446.26 219 1471.06 226.2 1484.39 240.6C1497.73 255 1504.39 273.8 1504.39 297V348.2C1504.39 371.4 1497.73 390.2 1484.39 404.6C1471.06 419 1446.26 426.2 1409.99 426.2H1363.99V492.6C1363.99 497.667 1362.79 501.4 1360.39 503.8C1358.26 505.933 1354.66 507 1349.59 507ZM1404.39 392.2C1416.93 392.2 1427.06 390.867 1434.79 388.2C1442.79 385.533 1448.93 381.933 1453.19 377.4C1457.46 372.6 1460.39 367 1461.99 360.6C1463.59 353.933 1464.39 346.733 1464.39 339V309.4C1464.39 301.667 1463.59 294.467 1461.99 287.8C1460.39 281.133 1457.46 275.4 1453.19 270.6C1448.93 265.8 1442.79 262.067 1434.79 259.4C1427.06 256.467 1416.93 255 1404.39 255H1317.99V471H1321.99V392.2H1404.39ZM1321.99 388.2V259H1404.39C1416.13 259 1425.59 260.333 1432.79 263C1440.26 265.4 1445.99 268.867 1449.99 273.4C1453.99 277.933 1456.66 283.267 1457.99 289.4C1459.59 295.533 1460.39 302.2 1460.39 309.4V339C1460.39 346.2 1459.59 352.867 1457.99 359C1456.66 364.867 1453.99 370.067 1449.99 374.6C1445.99 378.867 1440.26 382.2 1432.79 384.6C1425.59 387 1416.13 388.2 1404.39 388.2H1321.99ZM1363.19 293.8V354.2H1399.19C1406.93 354.2 1411.99 352.2 1414.39 348.2C1416.79 344.2 1417.99 339.667 1417.99 334.6V313.4C1417.99 308.333 1416.79 303.8 1414.39 299.8C1411.99 295.8 1406.93 293.8 1399.19 293.8H1363.19ZM1745.85 507H1560.25C1555.18 507 1551.45 505.933 1549.05 503.8C1546.92 501.4 1545.85 497.667 1545.85 492.6V233.4C1545.85 228.333 1546.92 224.733 1549.05 222.6C1551.45 220.2 1555.18 219 1560.25 219H1745.85C1750.92 219 1754.52 220.2 1756.65 222.6C1759.05 224.733 1760.25 228.333 1760.25 233.4V280.2C1760.25 285.267 1759.05 289 1756.65 291.4C1754.52 293.533 1750.92 294.6 1745.85 294.6H1635.45V325.4H1713.45C1718.52 325.4 1722.12 326.6 1724.25 329C1726.65 331.133 1727.85 334.733 1727.85 339.8V382.6C1727.85 387.667 1726.65 391.4 1724.25 393.8C1722.12 395.933 1718.52 397 1713.45 397H1635.45V431.4H1745.85C1750.92 431.4 1754.52 432.6 1756.65 435C1759.05 437.133 1760.25 440.733 1760.25 445.8V492.6C1760.25 497.667 1759.05 501.4 1756.65 503.8C1754.52 505.933 1750.92 507 1745.85 507ZM1724.25 467H1593.45V363.4H1691.85V359.4H1593.45V259H1724.25V255H1589.45V471H1724.25V467ZM1941.97 259C1956.1 259 1966.5 262.867 1973.17 270.6C1980.1 278.333 1983.57 288.333 1983.57 300.6V328.6C1983.57 343.267 1980.77 354.6 1975.17 362.6C1969.57 370.6 1958.5 374.6 1941.97 374.6H1854.77V259H1941.97ZM1897.97 291V342.2H1927.97C1934.9 342.2 1939.57 340.467 1941.97 337C1944.37 333.267 1945.57 328.733 1945.57 323.4V309.8C1945.57 304.467 1944.37 300.067 1941.97 296.6C1939.57 292.867 1934.9 291 1927.97 291H1897.97ZM1854.77 471V378.2H1967.97C1983.17 378.2 1994.37 381.533 2001.57 388.2C2008.77 394.6 2012.37 404.333 2012.37 417.4V471H2016.37V417.4C2016.37 403.533 2012.37 393 2004.37 385.8C1996.37 378.333 1984.24 374.6 1967.97 374.6H1963.57C1973.17 371.667 1979.57 366.333 1982.77 358.6C1985.97 350.6 1987.57 340.467 1987.57 328.2V300.6C1987.57 287.533 1983.84 276.733 1976.37 268.2C1968.9 259.4 1957.44 255 1941.97 255H1850.77V471H1854.77ZM1883.57 507H1821.97C1816.9 507 1813.17 505.933 1810.77 503.8C1808.64 501.4 1807.57 497.667 1807.57 492.6V233.4C1807.57 228.333 1808.64 224.733 1810.77 222.6C1813.17 220.2 1816.9 219 1821.97 219H1955.17C1985.04 219 2005.57 225.267 2016.77 237.8C2028.24 250.067 2033.97 266.067 2033.97 285.8V304.2C2033.97 315.4 2032.24 325 2028.77 333C2025.57 340.733 2019.84 346.333 2011.57 349.8C2025.97 351.4 2037.57 357.267 2046.37 367.4C2055.44 377.533 2059.97 391 2059.97 407.8V492.6C2059.97 497.667 2058.77 501.4 2056.37 503.8C2054.24 505.933 2050.64 507 2045.57 507H1983.57C1978.5 507 1974.77 505.933 1972.37 503.8C1970.24 501.4 1969.17 497.667 1969.17 492.6V431.4C1969.17 425.533 1967.97 421.267 1965.57 418.6C1963.44 415.667 1959.57 414.2 1953.97 414.2H1897.97V492.6C1897.97 497.667 1896.77 501.4 1894.37 503.8C1892.24 505.933 1888.64 507 1883.57 507ZM2181.23 507H2119.23C2114.17 507 2110.43 505.933 2108.03 503.8C2105.9 501.4 2104.83 497.667 2104.83 492.6V233.4C2104.83 228.333 2105.9 224.733 2108.03 222.6C2110.43 220.2 2114.17 219 2119.23 219H2297.63C2302.7 219 2306.3 220.2 2308.43 222.6C2310.83 224.733 2312.03 228.333 2312.03 233.4V281C2312.03 286.067 2310.83 289.8 2308.43 292.2C2306.3 294.333 2302.7 295.4 2297.63 295.4H2195.63V337H2265.23C2270.3 337 2273.9 338.2 2276.03 340.6C2278.43 342.733 2279.63 346.333 2279.63 351.4V399.4C2279.63 404.467 2278.43 408.2 2276.03 410.6C2273.9 412.733 2270.3 413.8 2265.23 413.8H2195.63V492.6C2195.63 497.667 2194.43 501.4 2192.03 503.8C2189.9 505.933 2186.3 507 2181.23 507ZM2148.43 471H2152.43V377.4H2243.63V373.4H2152.43V259H2276.03V255H2148.43V471ZM2378.44 385.8C2378.44 378.6 2378.97 371.933 2380.04 365.8C2381.37 359.667 2382.97 353.933 2384.84 348.6L2410.44 283C2413.1 276.333 2416.04 270.733 2419.24 266.2C2422.44 261.4 2428.04 259 2436.04 259H2475.24C2482.7 259 2488.04 261.4 2491.24 266.2C2494.44 270.733 2497.5 276.467 2500.44 283.4L2528.04 348.6C2529.9 353.933 2531.37 359.667 2532.44 365.8C2533.77 371.933 2534.44 378.6 2534.44 385.8V398.2H2378.44V385.8ZM2442.44 303L2423.64 363.8H2486.44L2467.64 303C2466.57 300.6 2465.37 298.867 2464.04 297.8C2462.97 296.733 2461.64 296.2 2460.04 296.2H2450.04C2448.44 296.2 2446.97 296.733 2445.64 297.8C2444.57 298.867 2443.5 300.6 2442.44 303ZM2534.44 471H2538.44V385.8C2538.44 378.333 2537.77 371.533 2536.44 365.4C2535.37 359 2533.77 352.867 2531.64 347L2504.04 281.8C2500.84 274.067 2497.37 267.667 2493.64 262.6C2490.17 257.533 2484.04 255 2475.24 255H2436.04C2426.97 255 2420.57 257.533 2416.84 262.6C2413.1 267.667 2409.77 273.933 2406.84 281.4L2381.24 347C2379.1 352.867 2377.37 359 2376.04 365.4C2374.97 371.533 2374.44 378.333 2374.44 385.8V471H2378.44V402.2H2534.44V471ZM2419.64 492.6C2419.64 497.667 2418.44 501.4 2416.04 503.8C2413.9 505.933 2410.3 507 2405.24 507H2346.44C2341.37 507 2337.64 505.933 2335.24 503.8C2333.1 501.4 2332.04 497.667 2332.04 492.6V387C2332.04 379 2333.24 369.8 2335.64 359.4C2338.3 349 2342.3 336.867 2347.64 323L2382.44 232.2C2384.04 227.667 2386.44 224.333 2389.64 222.2C2393.1 220.067 2397.5 219 2402.84 219H2510.44C2515.5 219 2519.64 220.067 2522.84 222.2C2526.3 224.333 2528.84 227.667 2530.44 232.2L2565.24 323C2570.57 336.867 2574.44 349 2576.84 359.4C2579.5 369.8 2580.84 379 2580.84 387V492.6C2580.84 497.667 2579.64 501.4 2577.24 503.8C2575.1 505.933 2571.5 507 2566.44 507H2506.04C2500.7 507 2496.7 505.933 2494.04 503.8C2491.64 501.4 2490.44 497.667 2490.44 492.6V436.6H2419.64V492.6ZM2683.03 258.2C2681.69 256.867 2680.63 255.933 2679.83 255.4C2679.03 254.867 2678.09 254.6 2677.03 254.6C2675.96 254.6 2674.89 255 2673.83 255.8C2672.76 256.6 2672.23 257.8 2672.23 259.4V471H2676.23V260.2C2676.23 259.933 2676.23 259.667 2676.23 259.4C2676.49 259.133 2676.76 259 2677.03 259C2677.29 259 2677.56 259.133 2677.83 259.4C2678.36 259.667 2678.76 259.933 2679.03 260.2L2830.23 429.8V471H2834.23V255H2830.23V423.8L2683.03 258.2ZM2704.63 507H2644.63C2639.56 507 2635.83 505.933 2633.43 503.8C2631.29 501.4 2630.23 497.667 2630.23 492.6V233.4C2630.23 228.333 2631.29 224.733 2633.43 222.6C2635.83 220.2 2639.56 219 2644.63 219H2686.23C2691.29 219 2695.56 219.8 2699.03 221.4C2702.76 223 2706.36 225.8 2709.83 229.8L2787.43 318.6V233.4C2787.43 228.333 2788.49 224.733 2790.63 222.6C2793.03 220.2 2796.76 219 2801.83 219H2861.83C2866.89 219 2870.49 220.2 2872.63 222.6C2875.03 224.733 2876.23 228.333 2876.23 233.4V492.6C2876.23 497.667 2875.03 501.4 2872.63 503.8C2870.49 505.933 2866.89 507 2861.83 507H2801.83C2796.76 507 2793.03 505.933 2790.63 503.8C2788.49 501.4 2787.43 497.667 2787.43 492.6V443.4L2719.03 360.6V492.6C2719.03 497.667 2717.83 501.4 2715.43 503.8C2713.29 505.933 2709.69 507 2704.63 507Z" fill="black"/>
<circle cx="340" cy="360" r="248" fill="black"/>
<path d="M348.645 393.497C418.622 380.364 454.71 481.819 523.422 436.966C581.336 399.155 514.649 294.305 490.265 260.388C460.856 219.465 424.662 210.491 398.315 215.436C366.819 221.352 350.811 252.9 323.227 258.081C295.643 263.261 269.278 239.662 237.79 245.565C211.443 250.511 180.958 271.995 168.394 320.808C157.972 361.255 133.855 483.161 201.541 497.388C281.835 514.273 278.67 406.64 348.645 393.497Z" fill="white" stroke="black" stroke-width="4" stroke-linecap="round" stroke-linejoin="round"/>
<path d="M420.699 336.046C434.026 333.404 442.688 320.458 440.046 307.131C437.404 293.804 424.458 285.142 411.131 287.784C397.804 290.426 389.142 303.372 391.784 316.699C394.426 330.026 407.372 338.688 420.699 336.046Z" fill="black"/>
<rect x="223.002" y="331" width="18" height="49" fill="black"/>
<rect x="207" y="347" width="49" height="18" fill="black"/>
</g>
<defs>
<clipPath id="clip0_163_56">
<rect width="3038" height="737" fill="white"/>
</clipPath>
</defs>
</svg>
