<?xml version="1.0" encoding="utf-8"?><!-- Uploaded to: SVG Repo, www.svgrepo.com, Generator: SVG Repo Mixer Tools -->
<svg width="800px" height="800px" viewBox="-0.5 0 25 25" fill="none" xmlns="http://www.w3.org/2000/svg">
<path d="M18 3.91992H6C3.79086 3.91992 2 5.71078 2 7.91992V17.9199C2 20.1291 3.79086 21.9199 6 21.9199H18C20.2091 21.9199 22 20.1291 22 17.9199V7.91992C22 5.71078 20.2091 3.91992 18 3.91992Z" stroke="#000000" stroke-width="1.5" stroke-linecap="round" stroke-linejoin="round"/>
<path d="M2 9.96997H5.37006C6.16571 9.96997 6.92872 10.286 7.49133 10.8486C8.05394 11.4112 8.37006 12.1743 8.37006 12.97C8.37006 13.7656 8.05394 14.5287 7.49133 15.0913C6.92872 15.6539 6.16571 15.97 5.37006 15.97H2" stroke="#000000" stroke-width="1.5" stroke-linecap="round" stroke-linejoin="round"/>
</svg>